<svg xmlns="http://www.w3.org/2000/svg" width="46" height="66"><path fill-rule="evenodd" fill="#444A5A" d="M44.917 17.117c-.234-.868-.706-1.793-1.056-2.603C39.682 4.518 30.55.934 23.175.934 13.304.934 2.431 7.523.978 21.102v2.772c0 .117.04 1.157.096 1.679.815 6.469 5.947 13.347 9.779 19.82 4.121 6.933 8.398 13.755 12.636 20.573 2.616-4.451 5.221-8.959 7.773-13.294.698-1.269 1.507-2.539 2.201-3.753.464-.811 1.353-1.619 1.758-2.37 4.121-7.512 10.759-15.081 10.759-22.538v-3.062c0-.807-1.006-3.64-1.063-3.812zM23.355 31.042c-2.902 0-6.077-1.443-7.645-5.432-.234-.635-.216-1.908-.216-2.024v-1.793c0-5.082 4.339-7.396 8.112-7.396 4.644 0 8.238 3.7 8.238 8.324s-3.843 8.321-8.489 8.321z"/></svg>